<svg xmlns="http://www.w3.org/2000/svg" xmlns:xlink="http://www.w3.org/1999/xlink" viewBox="0 0 640 360">
  <!-- Três ipês (rosa, amarelo, roxo). Cores da paleta do kit; tronco na cor tronco. -->
  <defs>
    <g id="ipe">
      <path d="M-11 0C-9-55-15-105-5-148H5C14-105 9-55 13 0Z" fill="#1F3A2B"/>
      <g fill="none" stroke="#1F3A2B" stroke-linecap="round">
        <path d="M-2-140C-20-165-45-185-78-205" stroke-width="9"/>
        <path d="M2-142C22-168 48-186 80-200" stroke-width="9"/>
        <path d="M0-145C-2-180 4-210 6-238" stroke-width="8"/>
        <path d="M-40-182C-48-200-40-228-30-250" stroke-width="5"/>
        <path d="M42-180C52-200 46-226 38-248" stroke-width="5"/>
      </g>
      <g fill="currentColor">
        <circle cx="-118" cy="-203" r="26"/>
        <circle cx="-92" cy="-224" r="36"/>
        <circle cx="-58" cy="-246" r="42"/>
        <circle cx="-18" cy="-262" r="46"/>
        <circle cx="24" cy="-262" r="46"/>
        <circle cx="62" cy="-244" r="42"/>
        <circle cx="96" cy="-222" r="36"/>
        <circle cx="122" cy="-202" r="26"/>
        <circle cx="-60" cy="-212" r="34"/>
        <circle cx="-20" cy="-222" r="40"/>
        <circle cx="22" cy="-222" r="40"/>
        <circle cx="60" cy="-212" r="34"/>
        <circle cx="-80" cy="-266" r="26"/>
        <circle cx="-40" cy="-286" r="30"/>
        <circle cx="0" cy="-296" r="30"/>
        <circle cx="42" cy="-286" r="30"/>
        <circle cx="82" cy="-264" r="26"/>
        <circle cx="0" cy="-240" r="44"/>
      </g>
      <g fill="#FFFFFF" fill-opacity=".35">
        <circle cx="-95" cy="-230" r="7"/>
        <circle cx="-50" cy="-270" r="8"/>
        <circle cx="-10" cy="-300" r="6"/>
        <circle cx="30" cy="-250" r="8"/>
        <circle cx="70" cy="-230" r="7"/>
        <circle cx="100" cy="-205" r="5"/>
        <circle cx="-30" cy="-215" r="6"/>
        <circle cx="15" cy="-278" r="7"/>
        <circle cx="-115" cy="-205" r="5"/>
        <circle cx="55" cy="-275" r="6"/>
        <circle cx="-65" cy="-240" r="5"/>
        <circle cx="40" cy="-215" r="5"/>
      </g>
    </g>
  </defs>
  <use xlink:href="#ipe" href="#ipe" transform="translate(150 360) scale(.72)" color="#E8609A"/>
  <use xlink:href="#ipe" href="#ipe" transform="translate(502 360) scale(.8)" color="#8A4FB8"/>
  <use xlink:href="#ipe" href="#ipe" transform="translate(328 360)" color="#FFC83D"/>
  <!-- Caxinguelê sentado entre os ipês: silhueta na cor tronco, olho vazado no verde do hero. -->
  <g transform="translate(214 360) scale(.9)" fill="#1F3A2B">
    <path d="M-8-18C-22-16-30-30-28-46C-26-62-14-74 0-74C10-74 16-68 16-62C12-64 6-64 2-60C-6-54-8-44-4-34Z"/>
    <path d="M30 0C26-2 24-8 24-14C24-20 26-24 30-27C34-30 40-32 44-34C42-38 38-42 32-44C30-46 26-46 23-46C23-50 21-54 18-53C16-52 16-48 17-45C12-44 6-40 0-36C-8-30-12-20-12-12C-12-4-6 0 2 0Z"/>
    <circle cx="32" cy="-38" r="1.8" fill="#00833F"/>
  </g>
</svg>
