<svg xmlns="http://www.w3.org/2000/svg" viewBox="10 65 1060 1240" role="img" aria-label="Caxinguelês">
<title>Caxinguelês</title>
<defs><mask id="m-v-verde" maskUnits="userSpaceOnUse" x="-2000" y="-2000" width="8000" height="8000">
<rect x="-2000" y="-2000" width="8000" height="8000" fill="#fff"/>
<path data-parte="olho" fill="#000" d="M930.5 421.7 C909.6 436.3 873.8 444.9 849.4 435.8 C812.2 421.8 793.9 362.3 817.1 329.9 C840.8 296.7 890.7 299.3 915.2 328.7 C934.2 351.4 937.7 393.9 930.5 421.7 Z "/>
<path data-parte="iris" fill="#fff" d="M922.8 414.2 C917.3 415.1 911.3 412.6 905.3 413.2 C896 414.1 887.2 418 877.9 418.9 C845 422.2 817.9 384.5 829.3 353.3 C841.8 318.9 887.7 318.1 906.3 346 C911.5 353.7 915.3 363.6 916.6 372.9 C918.6 385.9 923.1 401.5 922.8 414.2 Z "/>
<path data-parte="pupila" fill="#000" d="M879.1 371.1 C863.1 372.9 860.7 344.9 875.8 342.7 C893.2 340.1 897 369.2 879.1 371.1 Z"/>
<path data-parte="focinho" fill="#000" d="M993.6 451.5 C995.6 451 997.6 450.8 999.5 450.4 C1006.2 449 1013.5 447.2 1020.3 448.5 C1039.6 452.2 1047.6 489.7 1023.7 491.8 C1017.7 492.3 1012.4 492 1007 488 C1003.1 485.1 1002.2 482.3 1000.3 478.6 C999 476.2 996.9 473.2 995.9 471.2 C995.7 472.2 994 471.9 993.1 472.3 C991.4 473.3 989.8 477.5 989.3 479.3 Z "/>
<path data-parte="boca" fill="#000" d="M1000.3 478.6 C999 476.2 996.9 473.2 995.9 471.2 C995.7 472.2 994 471.9 993.1 472.3 C991.4 473.3 989.8 477.5 989.3 479.3 C985.9 493.3 996.6 505.5 1004.2 515.8 C962.1 554.9 918.1 541.5 877.6 508.1 C918.5 493.3 950.9 461.9 993.6 451.5 C995.6 451 997.6 450.8 999.5 450.4 Z "/>
<path data-parte="dentes" fill="#000" d="M966 583.1 L976.3 551.9 L990 548.8 L968.8 583.2 Z M942 584.1 L948 555.4 L968.5 553.8 L958.5 584.4 Z "/>
</mask></defs>
<path d="M926.8 574.1 C867.3 579.1 799 565.6 748.2 533.5 C709.7 509.3 681.2 474.6 638.3 456.5 C575.6 429.9 507.4 433.8 444.6 457.8 C200.1 551.2 227.8 944.2 490.8 998.7 C548.7 1010.7 612.6 1002.7 663.5 971.6 C715.1 940.1 755.5 893.9 808.9 864.6 C888.6 820.8 971.6 814.4 1058.1 840.3 C1032.2 946.3 983.8 1044.9 905.9 1122.5 C844 1184.2 770.3 1229.1 687 1255 C627.6 1273.6 563.1 1279.2 501.3 1273.1 C442.4 1267.2 381.9 1251.4 329.5 1223.6 C94.5 1099.2 -29.1 836.5 39.8 576.4 C56.4 513.6 86.9 455.9 123.5 402.7 C155.5 356.1 197.2 313.4 243.3 280.7 C299.2 241 362.4 207.3 430.4 193.9 C509.1 178.5 586 176.5 664.2 196.2 C664.3 148.1 677.3 109.9 713.5 77.4 C753.3 116 772.8 162 780.8 216.3 C783.3 215.9 791.4 213.4 794.3 215.1 C794.3 167.6 810.2 124.9 838.5 87.4 C868.4 133.6 880.7 183.1 874.5 237.9 C963.4 279.4 980.5 330.5 1016.6 414.3 C1025.8 435.8 1046 462 1043.7 485.9 C1042 504.2 1011.2 526.9 1002.9 544.9 Z M1002.9 544.9 C985.7 582.4 973.4 604.3 928.1 592.8 C928.8 584 928.3 582.1 926.8 574.1 L926.5 567.5 L999.5 537 Z " fill="#00833F" mask="url(#m-v-verde)"/>
<path data-parte="letreiro" d="M260 -108Q277 -108 297.5 -111.5Q318 -115 328 -121V-201L256 -195Q228 -193 210.0 -183.0Q192 -173 192 -153Q192 -133 207.5 -120.5Q223 -108 260 -108ZM252 -501Q361 -501 426.5 -456.5Q492 -412 492 -318V-94Q492 -68 477.5 -51.5Q463 -35 443 -23Q411 -4 365.0 6.0Q319 16 260 16Q155 16 91.5 -24.5Q28 -65 28 -147Q28 -216 69.5 -253.0Q111 -290 196 -299L327 -313V-320Q327 -349 301.5 -361.5Q276 -374 228 -374Q191 -374 154.5 -366.0Q118 -358 89 -346Q76 -355 67.0 -373.5Q58 -392 58 -412Q58 -460 109 -480Q138 -491 177.5 -496.0Q217 -501 252 -501ZM755 -310 786 -311Q820 -357 853.5 -401.5Q887 -446 921 -492Q926 -493 930.0 -493.0Q934 -493 938 -493Q985 -493 1012.5 -473.0Q1040 -453 1040 -421Q1040 -395 1027.5 -375.0Q1015 -355 982 -318Q957 -290 932.0 -262.5Q907 -235 882 -207L832 -186Q798 -137 764.5 -89.0Q731 -41 697 8Q693 8 686.5 8.5Q680 9 676 9Q626 9 599.0 -12.0Q572 -33 572 -64Q572 -88 583.5 -106.5Q595 -125 623 -157Q656 -195 689.0 -233.5Q722 -272 755 -310ZM854 -295 893 -275Q931 -224 970.0 -173.0Q1009 -122 1047 -71Q1042 -33 1017.0 -11.0Q992 11 957 11Q920 10 897.0 -11.0Q874 -32 853 -62Q829 -96 805.5 -130.0Q782 -164 758 -198L733 -214Q692 -262 651.0 -310.5Q610 -359 569 -407Q577 -445 601.0 -469.0Q625 -493 659 -493Q692 -493 710.0 -477.0Q728 -461 750 -432Q776 -398 802.0 -364.0Q828 -330 854 -295ZM1115 -621Q1115 -659 1141.0 -685.0Q1167 -711 1208 -711Q1249 -711 1275.0 -685.0Q1301 -659 1301 -621Q1301 -584 1275.0 -557.5Q1249 -531 1208 -531Q1167 -531 1141.0 -557.5Q1115 -584 1115 -621ZM1123 -264H1293V-1Q1282 2 1261.5 5.0Q1241 8 1217 8Q1168 8 1145.5 -9.0Q1123 -26 1123 -72ZM1293 -175H1123V-479Q1134 -482 1154.5 -485.0Q1175 -488 1199 -488Q1249 -488 1271.0 -471.5Q1293 -455 1293 -408ZM1879 -313V-221H1709V-308Q1709 -339 1690.5 -353.5Q1672 -368 1642 -368Q1622 -368 1604.5 -363.0Q1587 -358 1571 -350V-221H1401V-373Q1401 -400 1412.5 -417.0Q1424 -434 1444 -448Q1478 -472 1530.0 -486.5Q1582 -501 1644 -501Q1757 -501 1818.0 -451.5Q1879 -402 1879 -313ZM1401 -264H1571V-1Q1560 2 1539.5 5.0Q1519 8 1495 8Q1446 8 1423.5 -9.0Q1401 -26 1401 -72ZM1709 -264H1879V-1Q1868 2 1847.5 5.0Q1827 8 1803 8Q1754 8 1731.5 -9.0Q1709 -26 1709 -72ZM2185 -20Q2125 -20 2074.0 -43.0Q2023 -66 1992.5 -118.5Q1962 -171 1962 -257Q1962 -337 1994.0 -391.5Q2026 -446 2084.5 -473.5Q2143 -501 2221 -501Q2278 -501 2326.5 -486.0Q2375 -471 2401 -454Q2421 -441 2432.5 -423.0Q2444 -405 2444 -378V-63H2281V-356Q2271 -361 2259.0 -364.5Q2247 -368 2228 -368Q2185 -368 2158.0 -341.5Q2131 -315 2131 -256Q2131 -193 2155.5 -170.0Q2180 -147 2217 -147Q2247 -147 2267.0 -157.5Q2287 -168 2303 -181L2308 -48Q2285 -36 2255.5 -28.0Q2226 -20 2185 -20ZM2284 -11V-101H2444V-7Q2444 63 2410.0 108.5Q2376 154 2318.5 176.0Q2261 198 2190 198Q2137 198 2095.5 189.5Q2054 181 2030 165Q1994 141 1994 97Q1994 74 2003.5 55.0Q2013 36 2025 27Q2054 43 2090.5 54.0Q2127 65 2167 65Q2220 65 2252.0 47.0Q2284 29 2284 -11ZM2549 -193V-259H2719V-193Q2719 -153 2739.5 -135.0Q2760 -117 2797 -117Q2820 -117 2835.0 -121.0Q2850 -125 2857 -129V-259H3027V-104Q3027 -79 3016.5 -60.5Q3006 -42 2985 -29Q2950 -7 2901.5 4.5Q2853 16 2796 16Q2724 16 2668.0 -5.5Q2612 -27 2580.5 -73.0Q2549 -119 2549 -193ZM3027 -216H2857V-484Q2868 -487 2888.5 -490.0Q2909 -493 2933 -493Q2983 -493 3005.0 -476.5Q3027 -460 3027 -413ZM2719 -216H2549V-484Q2560 -487 2580.5 -490.0Q2601 -493 2625 -493Q2675 -493 2697.0 -476.5Q2719 -460 2719 -413ZM3213 -167 3207 -279 3438 -317Q3436 -337 3418.0 -357.0Q3400 -377 3362 -377Q3322 -377 3295.5 -351.0Q3269 -325 3267 -277L3273 -193Q3283 -147 3318.5 -129.0Q3354 -111 3398 -111Q3440 -111 3478.0 -122.0Q3516 -133 3539 -146Q3555 -136 3566.0 -118.0Q3577 -100 3577 -80Q3577 -47 3552.5 -25.5Q3528 -4 3485.0 6.0Q3442 16 3386 16Q3308 16 3245.5 -13.5Q3183 -43 3146.5 -102.0Q3110 -161 3110 -250Q3110 -316 3131.5 -364.0Q3153 -412 3189.0 -442.0Q3225 -472 3269.5 -486.5Q3314 -501 3361 -501Q3432 -501 3485.0 -473.5Q3538 -446 3568.0 -398.5Q3598 -351 3598 -289Q3598 -255 3579.0 -237.0Q3560 -219 3526 -214ZM3685 -264H3855V-1Q3844 2 3823.5 5.0Q3803 8 3779 8Q3730 8 3707.5 -9.0Q3685 -26 3685 -72ZM3855 -175H3685V-652Q3696 -655 3716.5 -658.0Q3737 -661 3761 -661Q3811 -661 3833.0 -644.5Q3855 -628 3855 -581ZM4046 -167 4040 -279 4271 -317Q4269 -337 4251.0 -357.0Q4233 -377 4195 -377Q4155 -377 4128.5 -351.0Q4102 -325 4100 -277L4106 -193Q4116 -147 4151.5 -129.0Q4187 -111 4231 -111Q4273 -111 4311.0 -122.0Q4349 -133 4372 -146Q4388 -136 4399.0 -118.0Q4410 -100 4410 -80Q4410 -47 4385.5 -25.5Q4361 -4 4318.0 6.0Q4275 16 4219 16Q4141 16 4078.5 -13.5Q4016 -43 3979.5 -102.0Q3943 -161 3943 -250Q3943 -316 3964.5 -364.0Q3986 -412 4022.0 -442.0Q4058 -472 4102.5 -486.5Q4147 -501 4194 -501Q4265 -501 4318.0 -473.5Q4371 -446 4401.0 -398.5Q4431 -351 4431 -289Q4431 -255 4412.0 -237.0Q4393 -219 4359 -214ZM4235 -577 4195 -626Q4169 -597 4152.5 -578.5Q4136 -560 4114 -534Q4075 -534 4052.0 -552.0Q4029 -570 4029 -598Q4029 -618 4040.0 -632.5Q4051 -647 4073 -669L4107 -703Q4126 -722 4147.5 -733.5Q4169 -745 4198 -745Q4224 -745 4246.5 -735.0Q4269 -725 4297 -690L4368 -603Q4368 -575 4351.5 -555.5Q4335 -536 4301 -536Q4282 -536 4266.5 -547.0Q4251 -558 4235 -577ZM4923 -145Q4923 -69 4865.5 -26.0Q4808 17 4698 17Q4613 17 4558.5 -7.5Q4504 -32 4504 -84Q4504 -108 4514.0 -125.0Q4524 -142 4538 -152Q4567 -136 4604.5 -123.5Q4642 -111 4691 -111Q4755 -111 4755 -144Q4755 -158 4743.0 -166.0Q4731 -174 4703 -179L4673 -185Q4587 -202 4544.0 -239.0Q4501 -276 4501 -343Q4501 -418 4562.0 -460.0Q4623 -502 4721 -502Q4770 -502 4810.5 -492.5Q4851 -483 4875.0 -462.5Q4899 -442 4899 -410Q4899 -388 4890.5 -371.0Q4882 -354 4869 -343Q4858 -350 4834.5 -357.0Q4811 -364 4784.0 -369.0Q4757 -374 4736 -374Q4703 -374 4685.0 -366.5Q4667 -359 4667 -343Q4667 -332 4677.0 -325.0Q4687 -318 4715 -312L4746 -305Q4842 -283 4882.5 -244.5Q4923 -206 4923 -145Z" fill="#00833F" transform="translate(340 750) scale(0.14557)"/>
</svg>
